# Blender 3.1.0
# www.blender.org
mtllib boat1.mtl
o Mast0
v -12.524651 25.661476 3.778560
v -12.759497 4.805922 0.558528
v -12.752897 4.710189 1.178091
v -12.518051 25.565742 4.398123
v -11.183473 25.601046 4.072147
v -11.418319 4.745490 0.852116
vn -13.6771 0.1285 0.1655
vn 0.1120 9.9418 1.5350
vn -0.1120 -9.9418 -1.5350
vn 4.1982 -1.5260 9.5777
vn 3.9931 1.4491 -9.6768
vt 0.000000 1.000000
vt 1.000000 1.000000
vt 0.000000 0.000000
vt 1.000000 0.000000
vt 1.000000 0.000000
vt 0.000000 1.000000
vt 0.000000 0.000000
vt 1.000000 1.000000
vt 0.000000 0.000000
vt 0.000000 1.000000
vt 1.000000 0.000000
vt 1.000000 1.000000
vt 0.000000 1.000000
vt 1.000000 0.000000
vt 0.000000 0.000000
s 1
usemtl 514630
f 1/1/1 2/3/1 3/5/1 4/8/1
f 1/1/2 4/9/2 5/11/2
f 3/6/3 2/3/3 6/14/3
f 4/10/4 3/7/4 6/14/4 5/12/4
f 5/13/5 6/15/5 2/4/5 1/2/5
o Hull
v -26.113495 5.000938 -4.601629
v -23.518261 -1.153430 -2.691284
v -23.456089 -1.081164 3.213652
v -26.012115 5.118774 5.027041
v -14.710994 4.845290 -7.455567
v -14.552022 5.030070 7.643255
v 8.814075 4.780607 8.500488
v 8.631942 4.568904 -8.798153
v -13.607935 -3.107653 4.100317
v -13.690434 -3.203545 -3.735223
v -0.026937 -3.375718 -5.362376
v 0.086832 -3.243478 5.443192
v -14.600836 -1.148623 5.203026
v 1.854537 -1.310300 6.940262
v 1.708361 -1.480206 -6.943184
v -14.706833 -1.271829 -4.864391
v -20.500034 -3.055144 2.551976
v -20.548424 -3.111388 -2.043880
v -19.513613 8.377302 6.061745
v -19.639051 8.231497 -5.852336
v -26.956902 8.307364 -5.776217
v -26.831463 8.453170 6.137864
v 13.105832 -1.522743 -0.119132
v 19.856447 4.874511 -0.268498
v 9.952464 -3.421305 -0.062697
vn -13.1164 -2.6645 0.1707
vn -13.1164 -2.6646 0.1707
vn 0.1076 9.6670 -0.1194
vn -0.1016 -9.6671 0.1194
vn -0.1076 -9.6670 0.1194
vn -1.9280 -3.3702 9.3268
vn -0.7733 -1.9097 9.8501
vn -2.2295 -1.4410 -9.8045
vn -0.9509 -3.6386 -9.2951
vn -4.0670 -3.4441 -8.8898
vn -0.0933 -9.6672 0.1193
vn -3.8781 -3.2245 9.0551
vn 0.0904 9.6672 -0.1193
vn 9.4466 6.9375 -0.1844
vn -2.7647 -0.6449 -9.8199
vn -13.4670 -1.6106 0.1615
vn -2.5572 -0.4037 9.8887
vn 8.0647 -5.1077 6.1453
vn 7.9349 -5.2586 -6.1869
vn -0.4571 9.6651 -0.1135
vn -1.8957 -5.2500 -8.3247
vn -1.7187 -5.0442 8.4887
vn -3.4758 -5.0858 8.1660
vn -9.3173 -7.0244 0.1841
vn -3.6456 -5.2832 -7.9641
vn 6.3229 -6.4099 -6.0049
vn 6.4496 -6.2627 6.0255
vt -1.409530 0.978440
vt -1.216202 0.793411
vt -1.216202 0.206589
vt -1.409530 0.021560
vt -0.573699 1.250247
vt -0.573699 -0.250247
vt 1.133942 -0.359554
vt 1.133942 1.359554
vt -0.495297 0.110659
vt -0.495297 0.889341
vt 0.504897 1.036919
vt 0.504897 -0.036919
vt -0.570329 -0.000241
vt 0.631390 -0.189856
vt 0.631390 1.189856
vt -0.570329 1.000241
vt -0.997984 0.271636
vt -0.997984 0.728364
vt -0.937950 -0.092000
vt -0.937950 1.092000
vt -1.473013 1.092000
vt -1.473013 -0.092000
vt 1.459409 0.500000
vt 1.947735 0.500000
vt 1.230415 0.500000
s 1
usemtl 6b551d
f 7/16/6 8/17/6 9/18/7
f 7/16/6 9/18/7 10/19/7
f 11/20/8 12/21/8 13/22/8
f 11/20/8 13/22/8 14/23/8
f 15/24/9 16/25/9 17/26/10
f 15/24/9 17/26/10 18/27/10
f 12/21/11 19/28/11 20/29/11
f 12/21/12 20/29/12 13/22/12
f 14/23/13 21/30/13 22/31/13
f 14/23/14 22/31/14 11/20/14
f 11/20/15 22/31/15 8/17/15 7/16/15
f 16/25/9 15/24/9 23/32/16 24/33/16
f 19/28/17 12/21/17 10/19/17 9/18/17
f 25/34/18 26/35/18 27/36/18 28/37/18
f 12/21/19 11/20/19 26/35/19 25/34/19
f 11/20/20 7/16/20 27/36/20 26/35/20
f 7/16/21 10/19/21 28/37/21 27/36/21
f 10/19/22 12/21/22 25/34/22 28/37/22
f 13/22/23 20/29/23 29/38/23 30/39/23
f 18/27/10 17/26/10 31/40/10
f 21/30/24 14/23/24 30/39/24 29/38/24
f 14/23/25 13/22/25 30/39/25
f 22/31/26 21/30/26 17/26/26 16/25/26
f 20/29/27 19/28/27 15/24/27 18/27/27
f 19/28/28 9/18/28 23/32/28 15/24/28
f 9/18/29 8/17/29 24/33/29 23/32/29
f 8/17/30 22/31/30 16/25/30 24/33/30
f 21/30/31 29/38/31 31/40/31 17/26/31
f 29/38/32 20/29/32 18/27/32 31/40/32
o Sail1
v 6.467485 12.130557 -5.469013
v 0.885230 6.720613 -5.119183
v 1.424582 5.426164 6.374719
v 7.071305 10.681382 7.398746
v 0.421760 20.811024 -3.510565
v 0.961112 19.516575 7.983337
v 3.884755 20.284391 2.100121
v 4.348226 6.193982 0.491502
v 9.962700 11.526563 0.828601
vn -10.9920 5.6724 1.1546
vn -0.3206 9.7465 1.1127
vn 0.3206 -9.7465 -1.1127
vn 10.5715 -5.8700 1.5736
vn 10.3189 -5.2639 -3.8078
vn -12.4367 -4.5092 0.0758
vn 11.8680 4.0196 3.0532
vn 11.5761 4.7204 -3.1691
vt 0.000000 1.000000
vt 1.000000 1.000000
vt 0.000000 0.000000
vt 0.000000 0.000000
vt 1.000000 0.000000
vt 1.000000 0.000000
vt 0.000000 1.000000
vt 0.000000 0.000000
vt 1.000000 1.000000
vt 0.000000 1.000000
vt 0.000000 0.000000
vt 0.000000 1.000000
vt 0.000000 0.000000
vt 0.000000 0.000000
vt 1.000000 0.000000
vt 0.000000 0.000000
vt 1.000000 0.000000
vt 0.000000 0.000000
vt 1.000000 1.000000
vt 0.000000 1.000000
vt 0.000000 0.000000
s 1
usemtl b0b0b0
f 32/41/33 33/44/33 34/46/33 35/49/33
f 36/52/34 37/54/34 38/55/34
f 34/47/35 33/44/35 39/57/35
f 35/50/36 34/48/36 39/57/36 40/59/36
f 40/60/37 39/58/37 33/45/37 32/42/37
f 32/43/38 35/51/38 37/54/38 36/53/38
f 35/51/39 40/61/39 38/56/39 37/54/39
f 40/61/40 32/43/40 36/53/40 38/56/40
o Sail0
v -5.357861 13.496022 -5.245393
v -11.141833 7.164366 -4.854547
v -11.015382 5.330222 7.015648
v -5.204203 11.267259 9.178692
v -10.951859 24.035172 -2.249748
v -10.825407 22.201027 9.620447
v -8.293530 23.093727 3.653939
v -8.483504 6.222921 1.049139
v -2.685928 12.357267 1.935238
vn -11.2851 5.6564 0.9942
vn 0.1120 9.9418 1.5350
vn -0.1120 -9.9418 -1.5350
vn 10.8493 -6.0225 1.3492
vn 10.7994 -5.2996 -3.3293
vn -12.7841 -3.4906 -0.4032
vn 12.3000 3.0967 3.0386
vn 12.2440 3.9089 -2.2176
vt 0.000000 1.000000
vt 1.000000 1.000000
vt 0.000000 0.000000
vt 0.000000 0.000000
vt 1.000000 0.000000
vt 1.000000 0.000000
vt 0.000000 1.000000
vt 0.000000 0.000000
vt 1.000000 1.000000
vt 0.000000 1.000000
vt 0.000000 0.000000
vt 0.000000 1.000000
vt 0.000000 0.000000
vt 0.000000 0.000000
vt 1.000000 0.000000
vt 0.000000 0.000000
vt 1.000000 0.000000
vt 0.000000 0.000000
vt 1.000000 1.000000
vt 0.000000 1.000000
vt 0.000000 0.000000
s 1
usemtl b0b0b0
f 41/62/41 42/65/41 43/67/41 44/70/41
f 45/73/42 46/75/42 47/76/42
f 43/68/43 42/65/43 48/78/43
f 44/71/44 43/69/44 48/78/44 49/80/44
f 49/81/45 48/79/45 42/66/45 41/63/45
f 41/64/46 44/72/46 46/75/46 45/74/46
f 44/72/47 49/82/47 47/77/47 46/75/47
f 49/82/48 41/64/48 45/74/48 47/77/48
o Mast1
v -0.070294 22.629713 3.177426
v -0.272321 4.688645 0.407382
v -0.265721 4.592912 1.026945
v -0.063694 22.533979 3.796989
v 1.270884 22.569281 3.471014
v 1.068858 4.628213 0.700970
vn -13.6771 0.1285 0.1655
vn 0.1120 9.9418 1.5350
vn -0.1120 -9.9418 -1.5350
vn 4.1982 -1.5260 9.5777
vn 3.9931 1.4491 -9.6768
vt 0.000000 1.000000
vt 1.000000 1.000000
vt 0.000000 0.000000
vt 1.000000 0.000000
vt 1.000000 0.000000
vt 0.000000 1.000000
vt 0.000000 0.000000
vt 1.000000 1.000000
vt 0.000000 0.000000
vt 0.000000 1.000000
vt 1.000000 0.000000
vt 1.000000 1.000000
vt 0.000000 1.000000
vt 1.000000 0.000000
vt 0.000000 0.000000
s 1
usemtl 514630
f 50/83/49 51/85/49 52/87/49 53/90/49
f 50/83/50 53/91/50 54/93/50
f 52/88/51 51/85/51 55/96/51
f 53/92/52 52/89/52 55/96/52 54/94/52
f 54/95/53 55/97/53 51/86/53 50/84/53
